#!OML:ASF H:\MichaelJackson\Top Level 1\Subject 1\Session 1\male.ASF
:FULLY-SPECIFIED
:DEGREES
242
root 22.7324 17.2143 -31.2887 -10.7449 9.02307 -15.7449
lowerback 10.6854 -3.65178 5.30259
upperback 3.31942 -4.1673 3.35543
thorax -2.63183 -2.07865 1.05402
lowerneck -9.12404 -3.03265 5.14797
upperneck 5.41867 -4.92747 3.10963
head 3.31639 -2.19444 -0.158385
rclavicle -5.9536e-014 2.62396e-014
rhumerus -45.7455 -5.99629 -66.3387
rradius 51.5052
rwrist 0.924548
rhand -26.068 -28.0238
rfingers 7.12502
rthumb 0.480043 -58.003
lclavicle -5.9536e-014 2.62396e-014
lhumerus -37.1931 -24.2398 96.4413
lradius 41.931
lwrist 13.4165
lhand 15.0685 20.6693
lfingers 7.12502
lthumb 39.9162 45.9206
rfemur -61.6661 -8.21816 -2.4463
rtibia 61.2383
rfoot 16.3561 3.81475
rtoes -7.66006
lfemur -1.54564 11.4245 -5.6878
ltibia 26.5802
lfoot -11.8508 -7.30731
ltoes 40.0054
243
root 22.7429 17.2181 -31.2803 -10.5153 8.22957 -15.5107
lowerback 10.7682 -3.56122 5.19585
upperback 3.37072 -4.05933 3.24527
thorax -2.62227 -2.02454 0.987174
lowerneck -9.14964 -2.86918 5.2062
upperneck 5.37486 -4.71168 3.05207
head 3.3058 -2.08997 -0.175681
rclavicle -2.54196e-014 -8.74653e-015
rhumerus -45.7869 -5.88727 -66.239
rradius 52.4114
rwrist 0.414499
rhand -24.8742 -28.3256
rfingers 7.12502
rthumb 1.63303 -58.2991
lclavicle -2.54196e-014 -8.74653e-015
lhumerus -37.1656 -24.5143 96.6307
lradius 42.355
lwrist 12.9586
lhand 14.6382 20.5311
lfingers 7.12502
lthumb 39.511 45.9029
rfemur -62.3306 -9.97362 -0.0775745
rtibia 54.0116
rfoot 13.9816 4.15749
rtoes -12.6181
lfemur -1.30243 12.4332 -5.71133
ltibia 26.3646
lfoot -11.9349 -7.48246
ltoes 39.7291
244
root 22.7478 17.2135 -31.2655 -10.2271 7.38369 -15.1923
lowerback 10.8032 -3.44577 4.98383
upperback 3.3999 -3.93344 3.11267
thorax -2.60419 -1.96181 0.950524
lowerneck -9.19467 -2.6937 5.24673
upperneck 5.35738 -4.47956 2.98309
head 3.30877 -1.97719 -0.193476
rclavicle 2.72832e-014 1.11319e-014
rhumerus -45.8393 -5.84532 -66.1554
rradius 53.3565
rwrist -0.115682
rhand -23.6339 -28.4402
rfingers 7.12502
rthumb 2.83094 -58.4012
lclavicle 2.72832e-014 1.11319e-014
lhumerus -37.2353 -24.8105 96.8208
lradius 42.8775
lwrist 12.6909
lhand 14.1945 20.269
lfingers 7.12502
lthumb 39.0929 45.7623
rfemur -63.5965 -12.4826 3.58839
rtibia 47.4615
rfoot 11.5802 5.58018
rtoes -17.6697
lfemur -1.18267 13.4084 -5.82114
ltibia 26.3893
lfoot -12.1771 -7.54083
ltoes 39.3936
245
root 22.7456 17.2012 -31.2454 -9.93605 6.53952 -14.7969
lowerback 10.8464 -3.32306 4.64998
upperback 3.41693 -3.8108 2.95258
thorax -2.59796 -1.90102 0.954385
lowerneck -9.24347 -2.50897 5.27724
upperneck 5.33868 -4.23348 2.90572
head 3.31255 -1.85807 -0.211528
rclavicle 4.17448e-014 -2.22639e-014
rhumerus -45.8964 -5.88797 -66.1005
rradius 54.3269
rwrist -0.673425
rhand -22.4088 -28.4768
rfingers 7.12502
rthumb 4.01405 -58.4188
lclavicle 4.17448e-014 -2.22639e-014
lhumerus -37.4146 -25.1609 97.0084
lradius 43.4951
lwrist 12.6184
lhand 13.689 19.8595
lfingers 7.12502
lthumb 38.6162 45.4884
rfemur -65.9182 -15.9659 9.26303
rtibia 42.1142
rfoot 9.00801 8.0409
rtoes -21.7852
lfemur -1.16338 14.2566 -6.02482
ltibia 26.6407
lfoot -12.5445 -7.43149
ltoes 39.0096
246
root 22.7351 17.182 -31.2222 -9.68796 5.74523 -14.313
lowerback 10.9443 -3.20547 4.16854
upperback 3.43495 -3.70858 2.7549
thorax -2.61523 -1.85055 1.0074
lowerneck -9.30134 -2.32376 5.31183
upperneck 5.3262 -3.98759 2.81952
head 3.32029 -1.73906 -0.233346
rclavicle 2.23633e-015 -2.38542e-014
rhumerus -45.9448 -6.04071 -66.083
rradius 55.3113
rwrist -1.26981
rhand -21.1957 -28.4293
rfingers 7.12502
rthumb 5.18537 -58.3459
lclavicle 2.23633e-015 -2.38542e-014
lhumerus -37.6933 -25.5879 97.1842
lradius 44.2084
lwrist 12.7506
lhand 13.1352 19.3612
lfingers 7.12502
lthumb 38.0935 45.1349
rfemur -69.9577 -20.3545 17.7117
rtibia 38.5247
rfoot 6.10614 11.5386
rtoes -25.6277
lfemur -1.2136 14.8965 -6.35055
ltibia 27.0852
lfoot -12.9956 -7.10427
ltoes 38.6153
247
root 22.7159 17.1554 -31.1975 -9.52791 5.04244 -13.7294
lowerback 11.1318 -3.1025 3.52462
upperback 3.47018 -3.64137 2.50914
thorax -2.65815 -1.81731 1.11055
lowerneck -9.37098 -2.14093 5.35689
upperneck 5.32413 -3.74775 2.73533
head 3.33409 -1.62229 -0.256858
rclavicle -1.27719e-014 3.97569e-015
rhumerus -45.977 -6.3204 -66.1164
rradius 56.3015
rwrist -1.90218
rhand -20.0879 -28.4018
rfingers 7.12502
rthumb 6.25494 -58.2894
lclavicle -1.27719e-014 3.97569e-015
lhumerus -38.0588 -26.1039 97.3335
lradius 45.0069
lwrist 13.0778
lhand 12.5247 18.7121
lfingers 7.12502
lthumb 37.5168 44.6412
rfemur -76.1391 -24.8048 28.9723
rtibia 37.1161
rfoot 3.4648 15.6054
rtoes -28.8791
lfemur -1.28026 15.2807 -6.81601
ltibia 27.6549
lfoot -13.4888 -6.55958
ltoes 38.187
248
root 22.689 17.1235 -31.175 -9.50167 4.46905 -13.0517
lowerback 11.455 -3.02468 2.73454
upperback 3.53752 -3.62266 2.21005
thorax -2.73697 -1.80769 1.25348
lowerneck -9.44998 -1.96505 5.41701
upperneck 5.31045 -3.51948 2.65357
head 3.34567 -1.51112 -0.282762
rclavicle -5.22307e-014 3.49861e-014
rhumerus -45.9842 -6.7366 -66.2075
rradius 57.2907
rwrist -2.58834
rhand -19.1039 -28.3663
rfingers 7.12502
rthumb 7.20486 -58.2237
lclavicle -5.22307e-014 3.49861e-014
lhumerus -38.4833 -26.7042 97.4435
lradius 45.8743
lwrist 13.5753
lhand 11.9304 18.0817
lfingers 7.12502
lthumb 36.9549 44.1578
rfemur -83.6264 -27.8976 41.1907
rtibia 37.9423
rfoot 1.70059 18.6496
rtoes -32.214
lfemur -1.3069 15.3819 -7.42563
ltibia 28.2721
lfoot -13.953 -5.76843
ltoes 37.7573
249
root 22.6571 17.0896 -31.1585 -9.62662 4.03764 -12.29
lowerback 11.9245 -2.97448 1.83479
upperback 3.64635 -3.65657 1.85617
thorax -2.84841 -1.82343 1.41563
lowerneck -9.53282 -1.798 5.49029
upperneck 5.2733 -3.3042 2.57378
head 3.34982 -1.40676 -0.310781
rclavicle 1.71452e-014 -1.51076e-014
rhumerus -45.961 -7.28394 -66.3608
rradius 58.2749
rwrist -3.3406
rhand -18.2862 -28.3219
rfingers 7.12502
rthumb 7.99414 -58.1507
lclavicle 1.71452e-014 -1.51076e-014
lhumerus -38.942 -27.3778 97.5066
lradius 46.7988
lwrist 14.2021
lhand 11.4394 17.5208
lfingers 7.12502
lthumb 36.4903 43.7153
rfemur -90.4945 -29.0495 51.4406
rtibia 40.636
rfoot 0.457403 19.0296
rtoes -35.6614
lfemur -1.25653 15.236 -8.17734
ltibia 28.8656
lfoot -14.3614 -4.77173
ltoes 37.2955
250
root 22.6238 17.0567 -31.1502 -9.90915 3.73471 -11.479
lowerback 12.5366 -2.94888 0.897108
upperback 3.80392 -3.73612 1.45764
thorax -2.98439 -1.86095 1.56644
lowerneck -9.60228 -1.64218 5.56635
upperneck 5.17472 -3.10034 2.48829
head 3.32996 -1.31035 -0.340998
rclavicle 6.2319e-014 -1.90833e-014
rhumerus -45.9079 -7.93962 -66.5732
rradius 59.266
rwrist -4.15983
rhand -17.6549 -28.2851
rfingers 7.12502
rthumb 8.60337 -58.0898
lclavicle 6.2319e-014 -1.90833e-014
lhumerus -39.401 -28.0971 97.5227
lradius 47.7555
lwrist 14.9236
lhand 11.1529 17.0981
lfingers 7.12502
lthumb 36.219 43.3605
rfemur -95.5119 -28.8575 58.1563
rtibia 44.6252
rfoot -0.34563 16.5916
rtoes -38.3059
lfemur -1.09344 14.9089 -9.03397
ltibia 29.3901
lfoot -14.7049 -3.60218
ltoes 36.7435
251
root 22.5901 17.0248 -31.1475 -10.3202 3.55815 -10.6955
lowerback 13.2428 -2.9497 0.00862188
upperback 4.00429 -3.85658 1.04776
thorax -3.12621 -1.91819 1.68898
lowerneck -9.6337 -1.50116 5.63246
upperneck 4.98601 -2.90736 2.38714
head 3.27135 -1.22338 -0.373928
rclavicle -1.2424e-014 0
rhumerus -45.8387 -8.68154 -66.8173
rradius 60.2787
rwrist -5.09913
rhand -17.2462 -28.2432
rfingers 7.12502
rthumb 8.99776 -58.0313
lclavicle -1.2424e-014 0
lhumerus -39.8321 -28.8417 97.5121
lradius 48.7088
lwrist 15.6912
lhand 11.0936 16.8372
lfingers 7.12502
lthumb 36.1628 43.1135
rfemur -98.6908 -28.0698 61.5635
rtibia 49.3829
rfoot -0.0798073 12.5256
rtoes -39.5056
lfemur -0.824797 14.474 -9.89627
ltibia 29.8274
lfoot -14.9771 -2.35259
ltoes 36.1198
